<?xml version="1.0" encoding="UTF-8"?>
<svg width="100" height="100" version="1.1" viewBox="0 0 26.458 26.458" xmlns="http://www.w3.org/2000/svg"><title>Royal Messenger Logo</title><g transform="translate(0 -270.54)"><path d="m9.2013 278.32-1.1508-6.6502 3.1647 4.232 2.0139-4.232 2.0139 4.232 3.1647-4.232-1.1508 6.6502h-8.0557m8.0557 1.8137a0.57541 0.60457 0 0 1-0.5754 0.60457h-6.9049a0.57541 0.60457 0 0 1-0.57541-0.60457v-0.60457h8.0557z" stroke-width=".58981"/><path d="m20.032 285.66-6.8032 4.252-6.8032-4.252v-1.7008l6.8032 4.252 6.8032-4.252m0-1.7008h-13.606c-0.94395 0-1.7008 0.75687-1.7008 1.7008v10.205a1.7008 1.7008 0 0 0 1.7008 1.7008h13.606a1.7008 1.7008 0 0 0 1.7008-1.7008v-10.205c0-0.94395-0.76536-1.7008-1.7008-1.7008z" stroke-width=".8504"/></g></svg>
